<svg width="50" height="50" viewBox="0 0 50 50" fill="none" xmlns="http://www.w3.org/2000/svg">
<g clip-path="url(#clip0)">
<path d="M42.6777 7.32231C37.9559 2.60048 31.6776 0 25 0C18.322 0 12.0441 2.60048 7.32231 7.32231C2.60048 12.0441 0 18.322 0 25C0 31.6776 2.60048 37.9559 7.32231 42.6777C12.0441 47.3995 18.322 50 25 50C31.6776 50 37.9559 47.3995 42.6777 42.6777C47.3995 37.9559 50 31.6776 50 25C50 18.322 47.3995 12.0441 42.6777 7.32231ZM12.5332 43.2018C13.5788 37.1815 18.7958 32.7408 25 32.7408C31.2046 32.7408 36.4212 37.1815 37.4668 43.2018C33.9172 45.6406 29.6227 47.0703 25 47.0703C20.3773 47.0703 16.0828 45.6406 12.5332 43.2018ZM17.0509 21.862C17.0509 17.4786 20.6169 13.913 25 13.913C29.3831 13.913 32.9491 17.4789 32.9491 21.862C32.9491 26.2451 29.3831 29.8111 25 29.8111C20.6169 29.8111 17.0509 26.2451 17.0509 21.862ZM40.0043 41.1697C39.2159 38.3671 37.6499 35.8242 35.4549 33.8379C34.1084 32.6191 32.5756 31.6574 30.9277 30.9795C33.9062 29.0367 35.8791 25.6756 35.8791 21.862C35.8791 15.8634 30.9986 10.9833 25 10.9833C19.0014 10.9833 14.1212 15.8634 14.1212 21.862C14.1212 25.6756 16.0942 29.0367 19.0723 30.9795C17.4248 31.6574 15.8916 32.6187 14.5451 33.8375C12.3505 35.8238 10.7841 38.3667 9.99565 41.1694C5.65262 37.1361 2.92969 31.3805 2.92969 25C2.92969 12.8304 12.8304 2.92969 25 2.92969C37.1696 2.92969 47.0703 12.8304 47.0703 25C47.0703 31.3808 44.3474 37.1365 40.0043 41.1697Z" fill="#FFAF38"/>
</g>
<defs>
<clipPath id="clip0">
<rect width="50" height="50" fill="white"/>
</clipPath>
</defs>
</svg>
